<svg width="26" height="25" viewBox="0 0 26 25" fill="none" xmlns="http://www.w3.org/2000/svg">
<path d="M13.6997 23.1473L23.0754 12.9213C25.3788 10.3964 25.7145 6.26813 23.5384 3.62957C22.9926 2.96464 22.3283 2.42806 21.586 2.05261C20.8437 1.67715 20.0391 1.47071 19.2211 1.4459C18.4032 1.42108 17.5893 1.57842 16.829 1.90829C16.0687 2.23816 15.3781 2.73364 14.7993 3.36446L13.0399 5.29603L11.5236 3.62957C9.2086 1.11726 5.4236 0.751149 3.00443 3.12459C2.39479 3.71982 1.90282 4.44438 1.55859 5.25399C1.21435 6.0636 1.02508 6.94126 1.00233 7.83335C0.979577 8.72544 1.12383 9.61322 1.42627 10.4424C1.72872 11.2717 2.183 12.0249 2.76136 12.6562L12.3801 23.1473C12.5557 23.337 12.7928 23.4434 13.0399 23.4434C13.287 23.4434 13.5241 23.337 13.6997 23.1473Z" stroke="#E1E1E6" stroke-width="2" stroke-linecap="round" stroke-linejoin="round"/>
</svg>
